<?xml version="1.0" standalone="no"?><!DOCTYPE svg PUBLIC "-//W3C//DTD SVG 1.1//EN" "http://www.w3.org/Graphics/SVG/1.1/DTD/svg11.dtd"><svg t="1705932070202" class="icon" viewBox="0 0 1024 1024" version="1.1" xmlns="http://www.w3.org/2000/svg" p-id="2612" xmlns:xlink="http://www.w3.org/1999/xlink" width="200" height="200"><path d="M30.25 353.9l381.84 225.33c61.48 37.57 138.81 37.57 200.29 0L994.22 353.9c17.28-10.51 22.78-33.04 12.27-50.32a36.73 36.73 0 0 0-12.27-12.27L602.94 40.94c-54.71-37.58-126.91-37.58-181.62 0L30.25 291.31c-17.28 10.51-22.78 33.04-12.27 50.32a36.73 36.73 0 0 0 12.27 12.27zM455.87 90.94c34.7-20.79 78.03-20.79 112.74 0l353.66 228.4-344.29 203.45c-42.47 25.1-95.23 25.1-137.7 0L95.99 319.42 455.87 90.94zM27.1 544.75l384.99 241.07c61.48 37.57 138.81 37.57 200.29 0l384.99-240.99a31.828 31.828 0 0 0 15.59-25.04c0.72-16.26-11.87-30.03-28.13-30.75a29.45 29.45 0 0 0-18.79 5.72L581.05 735.88c-42.47 25.1-95.23 25.1-137.7 0L58.36 491.74c-13.1-9.66-31.55-6.86-41.21 6.24-4 5.43-6.02 12.06-5.72 18.79a32.784 32.784 0 0 0 15.66 28.04l0.01-0.06z m938.94 147.07L581.05 932.81c-42.47 25.1-95.23 25.1-137.7 0L58.36 691.82c-13.1-9.66-31.55-6.86-41.21 6.24-4 5.43-6.02 12.06-5.72 18.79a27.99 27.99 0 0 0 15.59 25.04l385.06 241.14c61.48 37.57 138.81 37.57 200.29 0l384.99-240.99a31.828 31.828 0 0 0 15.59-25.04c0.77-16.26-11.79-30.06-28.05-30.82a29.42 29.42 0 0 0-18.87 5.72l0.01-0.08z" fill="#FFFFFF" p-id="2613"></path></svg>